<?xml version="1.0" standalone="no"?>
<!DOCTYPE svg PUBLIC "-//W3C//DTD SVG 1.1//EN" "http://www.w3.org/Graphics/SVG/1.1/DTD/svg11.dtd" >
<svg xmlns="http://www.w3.org/2000/svg">
<metadata></metadata>
<defs>
<font id="formula-lightregular" horiz-adv-x="1159" >
<font-face units-per-em="2048" ascent="1638" descent="-410" />
<missing-glyph horiz-adv-x="593" />
<glyph horiz-adv-x="0" />
<glyph unicode="&#xd;" horiz-adv-x="593" />
<glyph unicode=" "  horiz-adv-x="593" />
<glyph unicode="&#x09;" horiz-adv-x="593" />
<glyph unicode="&#xa0;" horiz-adv-x="593" />
<glyph unicode="!" horiz-adv-x="417" d="M139 0v186h137v-186h-137zM139 1036v441h137v-441l-18 -665h-98z" />
<glyph unicode="&#x22;" horiz-adv-x="503" d="M72 1298v185h137v-223q0 -119 -31 -176.5t-102 -69.5v71l26 15q16 14 29 53l8 107l-2 38h-65zM297 1298v185h137v-223q0 -119 -30.5 -176.5t-102.5 -69.5v71q18 4 32.5 16.5t22.5 51.5l9 107v38h-68z" />
<glyph unicode="#" horiz-adv-x="1294" d="M109 475l18 86h235l74 352h-235l18 86h236l92 439h86l-92 -439h227l92 439h86l-92 -439h236l-19 -86h-235l-76 -352h237l-18 -86h-236l-92 -438h-86l92 438h-227l-92 -438h-86l92 438h-235zM449 561h225l76 352h-228z" />
<glyph unicode="$" horiz-adv-x="1241" d="M72 475v27h114q0 -209 96.5 -316.5t299.5 -107.5v639l-68 16l-76 8q-80 12 -166 61.5t-131 119.5q-39 68 -39 180q0 168 130 283.5t323 115.5h23v115l77 -2v-113l74 -2q39 -4 69.5 -11t71.5 -24q74 -27 142 -86q61 -53 96 -137q16 -43 24.5 -86t8.5 -102h-119 q0 164 -94 254t-269 90v-576q281 -29 399 -122t118 -281q0 -203 -139.5 -324t-381.5 -121v-131h-77v129q-250 0 -378 130t-128 374zM229 1110q0 -84 25 -125t80 -72l82 -36l55 -21l59 -14l52 -6v561q-152 0 -252.5 -80t-100.5 -207zM659 76q170 0 276.5 92t106.5 240 q0 137 -80.5 201.5t-302.5 95.5v-629z" />
<glyph unicode="%" horiz-adv-x="1404" d="M84 1141q0 172 75 268t212 96q133 0 208.5 -97t75.5 -267q0 -172 -74.5 -268.5t-209.5 -96.5t-211 97.5t-76 267.5zM195 1141q0 -279 172 -279q178 0 178 279q0 281 -172 280q-178 1 -178 -280zM297 0l698 1477h101l-699 -1477h-100zM750 336q0 172 74.5 269t211.5 97 q127 0 205 -99t78 -267t-75 -266.5t-208 -98.5q-135 0 -210.5 97.5t-75.5 267.5zM858 336q0 -279 176 -279t176 279q0 281 -172 280q-180 1 -180 -280z" />
<glyph unicode="&#x26;" horiz-adv-x="1411" d="M84 389q0 137 85 240.5t271 197.5q-178 191 -178 359q0 141 96.5 231t247.5 90q143 0 238.5 -87t95.5 -220q0 -115 -73.5 -203t-250.5 -182l402 -442l39 102l22 84l17 103l6 112h108q0 -143 -22 -239q-18 -98 -86 -256l256 -279h-172l-160 176q-51 -59 -150.5 -137 t-293.5 -78q-207 0 -352.5 124t-145.5 304zM215 399q0 -139 109.5 -233t269.5 -94q104 0 188 43t170 143l-442 492q-154 -86 -224.5 -171t-70.5 -180zM385 1190q0 -45 8 -76t39 -78l23 -41l30 -41l31 -34l31 -31q145 74 214.5 149.5t69.5 161.5q0 90 -65 150q-61 61 -160 61 q-98 0 -159.5 -61.5t-61.5 -159.5z" />
<glyph unicode="'" horiz-adv-x="278" d="M72 1298v185h137v-223q0 -119 -31 -176.5t-102 -69.5v71l26 15q16 14 29 53l8 107l-2 38h-65z" />
<glyph unicode="(" horiz-adv-x="524" d="M100 737q0 276 54.5 434t87.5 226l75 147l82 129h97l-54 -100l-47 -92l-57 -133l-51 -148q-10 -31 -22.5 -100.5t-18.5 -106.5q-18 -133 -19 -256q0 -115 18.5 -250t43.5 -223q12 -39 23.5 -72.5t25.5 -66.5l47 -109l55 -108l56 -105h-97l-47 72l-139 238 q-113 201 -113 624z" />
<glyph unicode=")" horiz-adv-x="526" d="M29 -197l59 101l45 88l60 135q29 68 51 149q10 33 18 78t24.5 154.5t16.5 228.5q0 111 -18.5 248t-41 216t-24.5 85q-10 33 -24 64q-18 55 -52 112l-57 109l-57 100h100q61 -90 180 -298t119 -636q0 -270 -69.5 -468.5t-114.5 -280.5t-64 -105l-51 -80h-100z" />
<glyph unicode="*" horiz-adv-x="765" d="M72 1229l30 82l244 -103v269h76v-269l240 99l36 -80l-254 -82l156 -209l-70 -47l-145 225l-160 -225l-65 51l157 205z" />
<glyph unicode="+" d="M143 686v107h387v378h99v-378h385v-107h-383v-383h-105v383h-383z" />
<glyph unicode="," horiz-adv-x="278" d="M72 0v186h137v-209q0 -125 -32 -179t-103 -66v65q31 6 48 46t17 118l-2 39h-65z" />
<glyph unicode="-" horiz-adv-x="608" d="M72 469v125h467v-125h-467z" />
<glyph unicode="." horiz-adv-x="278" d="M72 0v186h137v-186h-137z" />
<glyph unicode="/" horiz-adv-x="735" d="M39 0l555 1477h100l-549 -1477h-106z" />
<glyph unicode="0" d="M90 741q0 180 25.5 298t93.5 233q63 106 159.5 167.5t211.5 61.5t213 -59.5t187 -212t89 -492.5q0 -332 -87 -487.5t-187.5 -216t-214.5 -60.5q-115 0 -209.5 57.5t-187.5 211t-93 499.5zM219 737q0 -289 64.5 -421t138.5 -185t153 -53q170 0 267.5 174t97.5 485 q0 295 -65.5 423t-138 182.5t-154.5 54.5q-168 0 -265.5 -174.5t-97.5 -485.5z" />
<glyph unicode="1" d="M266 1171v105l82 39l78 41l41 30q37 25 90 91h123v-1477h-131v1339l-43 -36l-70 -52q-45 -33 -170 -80z" />
<glyph unicode="2" d="M145 985q0 78 12.5 143.5t41.5 128.5q49 111 158.5 179.5t244.5 68.5q184 0 310 -115.5t126 -295.5q0 -164 -73 -248q-31 -33 -64 -66q-23 -23 -47 -43l-82 -53l-178 -102q-197 -111 -246 -203q-55 -90 -55 -252v-16h721v-111h-860l8 102l2 80l12 92q10 66 52 138.5 t105.5 126t194.5 129.5q45 25 90 51q63 37 101 63q55 37 119.5 99.5t64.5 205.5q0 133 -86 221.5t-223 88.5q-150 0 -240 -110.5t-90 -301.5h-119z" />
<glyph unicode="3" d="M94 426v37h119q0 -184 90 -285.5t252 -101.5t260 98t98 254q0 129 -74.5 197.5t-148.5 93.5q-76 20 -186 20l-60 -2v101q162 0 244 16t137.5 85t55.5 171q0 121 -88 205t-224 84q-145 0 -238 -94.5t-93 -257.5h-119q0 211 127 335.5t329 124.5q193 0 316 -112.5 t123 -280.5q0 -84 -37 -156.5t-89 -105.5t-147 -61l56 -17q115 -39 181 -134t66 -224q0 -193 -137 -321t-344 -128q-209 0 -339 123t-130 336z" />
<glyph unicode="4" d="M74 418v82l637 977h159v-957h179v-104h-179v-416h-131v418h-665zM217 520h522v817z" />
<glyph unicode="5" d="M129 387l117 4q0 -139 87 -228t216 -89q154 0 257 125t103 311q0 190 -96 316t-248 126q-217 0 -297 -258h-110l55 783h723v-107h-612l-31 -471q96 150 293 150q201 0 326.5 -149.5t125.5 -387.5q0 -242 -136 -393.5t-351 -151.5q-188 0 -305 115t-117 305z" />
<glyph unicode="6" d="M125 700q0 381 130 594t372 213q182 0 295.5 -119.5t113.5 -316.5h-127q0 141 -79.5 235.5t-202.5 94.5q-172 0 -272.5 -175t-100.5 -470l2 -82q104 254 356 254q178 0 301 -134.5t123 -332.5q0 -215 -125 -353.5t-313 -138.5q-193 0 -294 116t-140 259t-39 356zM285 461 q0 -21 4 -27q0 -158 89 -259t222 -101t217 105.5t84 281.5q0 162 -87 265t-220 103t-221 -103t-88 -265z" />
<glyph unicode="7" d="M152 1366v111h806v-115l-446 -1362h-131l446 1366h-675z" />
<glyph unicode="8" d="M109 393q0 313 309 400q-117 37 -186.5 129t-69.5 217q0 166 116.5 272.5t299.5 106.5q186 0 301.5 -105.5t115.5 -273.5q0 -121 -66.5 -214.5t-189.5 -131.5q147 -39 228.5 -142.5t81.5 -257.5q0 -197 -126 -310.5t-345 -113.5q-215 0 -342 115t-127 309zM236 406 q0 -150 93 -243t249 -93q160 0 253 90t93 246q0 150 -96.5 240.5t-249.5 90.5q-150 0 -246 -90.5t-96 -240.5zM283 1139q0 -129 79 -213q82 -78 216 -78q137 0 215.5 78t78.5 213q0 129 -81 204q-39 37 -92.5 57.5t-120.5 20.5q-129 0 -212 -77.5t-83 -204.5z" />
<glyph unicode="9" d="M125 393h121q0 -70 23.5 -128t66.5 -105q74 -84 194 -84q104 0 184.5 61.5t116 160.5t56 211t20.5 226l-2 74q-104 -262 -358 -262q-172 0 -297 135t-125 330q0 215 123 356t315 141q176 0 276.5 -108.5t148.5 -222t48 -398.5q0 -389 -133 -601t-375 -212 q-176 0 -289.5 118t-113.5 308zM256 1028q0 -168 87 -275.5t224 -107.5q129 0 217 104.5t88 270.5t-87 274.5t-222 108.5t-221 -104.5t-86 -270.5z" />
<glyph unicode=":" horiz-adv-x="335" d="M100 0v186h138v-186h-138zM100 750v186h138v-186h-138z" />
<glyph unicode=";" horiz-adv-x="335" d="M100 0v186h138v-209q0 -119 -31 -176t-103 -69v65q35 6 49.5 48t14.5 116v39h-68zM100 750v186h138v-186h-138z" />
<glyph unicode="&#x3c;" horiz-adv-x="479" d="M72 438v103l338 284v-137l-252 -199l252 -200v-135z" />
<glyph unicode="=" d="M100 799v104h959v-104h-959zM102 571v109h957v-109h-957z" />
<glyph unicode="&#x3e;" horiz-adv-x="487" d="M72 152v137l256 200l-256 201v137l344 -286v-103z" />
<glyph unicode="?" horiz-adv-x="954" d="M16 1032q0 221 120 347t327 126q184 0 303 -106.5t119 -276.5q0 -104 -37 -179t-127 -148l-88 -74q-80 -61 -113 -133t-33 -166v-45h-116l-4 39q0 125 41 208t153 177l84 76q115 98 115 239q0 123 -86 203t-215 80q-135 0 -226.5 -94.5t-91.5 -239.5l2 -33h-127zM358 0 v186h138v-186h-138z" />
<glyph unicode="@" horiz-adv-x="1708" d="M117 735q0 131 38 249t122.5 234.5t214 190.5t221.5 86t137 12q270 0 445 -180t175 -457q0 -59 -19 -193t-112.5 -249t-158.5 -127l-82 -8q-80 0 -131 53q-43 45 -43 127q-14 -43 -41 -74q-74 -86 -170 -86q-49 0 -149.5 47.5t-100.5 339.5l8 74q18 133 72 227 q49 98 129 154.5t155 56.5q115 0 172 -112l11 -23l18 127l98 -2l-79 -446l-29 -185l-4 -30v-25q0 -39 15 -90t83 -51l39 8q25 10 47 29l25.5 25.5t36.5 39.5q35 45 65 117q25 70 37 145l10 129q0 246 -143.5 398.5t-370.5 152.5q-66 0 -190 -22q-137 -18 -289 -212 t-152 -450q0 -100 41 -259t205 -292t365 -133q86 0 159.5 19.5t155.5 70.5l102 74q63 55 115 115l47 -54l-53 -59q-121 -125 -256 -184.5t-281 -59.5q-274 0 -472.5 184.5t-218 357.5t-19.5 220zM571 594l7 -72q6 -32 20 -57q35 -74 119 -74q55 0 90 32t55 71l37 86l29 92 l20 94l4 22l13 84l6 76q0 76 -44 126t-102 50q-74 0 -127 -65q-45 -59 -77 -148l-35 -131l-13 -92z" />
<glyph unicode="A" horiz-adv-x="1153" d="M-18 0l522 1477h129l541 -1477h-140l-162 459h-604l-153 -459h-133zM301 563h539l-248 670l-21 61l-6 62l-12 -68l-14 -53z" />
<glyph unicode="B" horiz-adv-x="1267" d="M139 0v1477h533q57 0 82.5 -2t93.5 -15q102 -14 187 -110.5t85 -235.5q0 -123 -66.5 -208t-189.5 -115q307 -74 307 -373q0 -213 -109.5 -293t-197.5 -105q-37 -8 -91 -14t-116 -6h-518zM266 109h396q178 0 279 82.5t101 230.5q0 109 -59 186.5t-141 95t-148 17.5h-428 v-612zM266 825h377q94 0 142.5 13.5t127 75t78.5 190.5q0 100 -56 168.5t-132 81t-156 12.5h-381v-541z" />
<glyph unicode="C" horiz-adv-x="1415" d="M84 729q0 352 185.5 568t494.5 216q244 0 399.5 -143t155.5 -383h-123q0 190 -127 311t-313 121q-236 0 -388.5 -192.5t-152.5 -493.5q0 -299 150.5 -484.5t392.5 -185.5q109 0 210 49.5t165.5 144.5t89.5 259h120q0 -252 -160.5 -400.5t-420.5 -148.5q-307 0 -492.5 207 t-185.5 555z" />
<glyph unicode="D" horiz-adv-x="1368" d="M139 0v1477h428q334 0 524.5 -196t190.5 -540t-186.5 -542.5t-515.5 -198.5h-441zM266 109h277q295 0 450.5 161.5t155.5 468.5q0 240 -104.5 397.5t-223.5 188.5q-66 14 -96.5 20.5t-85.5 14.5l-127 6h-246v-1257z" />
<glyph unicode="E" horiz-adv-x="1103" d="M139 0v1477h869v-111h-742v-537h699v-110h-699v-610h742v-109h-869z" />
<glyph unicode="F" horiz-adv-x="1036" d="M139 0v1477h865v-111h-738v-535h697v-110h-697v-721h-127z" />
<glyph unicode="G" horiz-adv-x="1449" d="M84 733q0 344 185.5 560t488.5 216q229 0 380.5 -130t178.5 -351h-121q-31 178 -149.5 281.5t-290.5 103.5q-240 0 -389.5 -190.5t-149.5 -503.5q0 -285 148.5 -470.5t384.5 -185.5q213 0 337.5 147.5t124.5 414.5h-475v108h600v-733h-110v264q-135 -299 -477 -299 q-276 0 -416.5 144.5t-195 291t-54.5 332.5z" />
<glyph unicode="H" horiz-adv-x="1349" d="M139 0v1477h127v-646h819v646h125v-1477h-125v725h-819v-725h-127z" />
<glyph unicode="I" horiz-adv-x="407" d="M139 0v1477h127v-1477h-127z" />
<glyph unicode="J" horiz-adv-x="950" d="M0 393v121h127v-115q0 -29 2 -63.5t10 -86.5t80 -114q76 -59 187 -59q170 0 233 125q45 78 45 239v1037h125v-1051l-2 -74q0 -35 -6 -70.5t-10 -58.5q-12 -90 -118 -172t-272 -82q-98 0 -180 33t-133 90.5t-69.5 123t-18.5 177.5z" />
<glyph unicode="K" horiz-adv-x="1093" d="M139 0v1477h127v-758q29 72 64 112l538 646h148l-492 -586l574 -891h-152l-500 799l-180 -213v-586h-127z" />
<glyph unicode="L" horiz-adv-x="985" d="M139 0v1477h127v-1368h682v-109h-809z" />
<glyph unicode="M" horiz-adv-x="1636" d="M139 0v1477h168l481 -1205q16 -39 31 -129l15 72l14 57l481 1205h168v-1477h-125v1196l8 92l2 49l-6 -14l-8 -35l-27 -84l-475 -1204h-94l-475 1204l-27 84l-12 35l-2 14v-24l2 -25l8 -92v-1196h-127z" />
<glyph unicode="N" horiz-adv-x="1429" d="M139 0v1477h154l827 -1209q29 -43 66 -135l-21 152v1192h125v-1477h-127l-852 1237l-63 123l4 -23l2 -20l12 -86v-1231h-127z" />
<glyph unicode="O" horiz-adv-x="1505" d="M84 737q0 352 182.5 562t487.5 210q299 0 482 -211t183 -559q0 -352 -182 -562t-483 -210t-485.5 210t-184.5 560zM211 737q0 -301 148.5 -486t394.5 -185q240 0 390 187t150 484q0 301 -149.5 487.5t-390.5 186.5q-242 0 -392.5 -187.5t-150.5 -486.5z" />
<glyph unicode="P" horiz-adv-x="1103" d="M139 0v1477h510q201 0 314.5 -110t113.5 -308q0 -203 -89 -292t-174 -116.5t-212 -27.5h-336v-623h-127zM266 731h363q154 0 237.5 83t83.5 241q0 311 -323 311h-361v-635z" />
<glyph unicode="Q" horiz-adv-x="1499" d="M84 737q0 352 182.5 562t487.5 210q299 0 482 -211t183 -559q0 -350 -100 -465l-121 -131l-51 -43l264 4l-2 -104h-438l-121 -27q-37 -6 -94 -6q-301 0 -486.5 210t-185.5 560zM211 737q0 -301 148.5 -486t394.5 -185q240 0 390 187t150 484q0 301 -149.5 487.5 t-390.5 186.5q-242 0 -392.5 -187.5t-150.5 -486.5z" />
<glyph unicode="R" horiz-adv-x="1216" d="M139 0v1477h547q211 0 326.5 -108.5t115.5 -305.5q0 -174 -96 -278.5t-272 -122.5l395 -662h-154l-378 651h-357v-651h-127zM266 756h400q166 0 250.5 77.5t84.5 231.5q0 143 -88 222t-251 79h-396v-610z" />
<glyph unicode="S" horiz-adv-x="1241" d="M72 475v27h114q0 -424 439 -424q190 0 302.5 89t112.5 245q0 92 -37.5 148t-95 82t-114.5 38l-197 33q-137 20 -188.5 33.5t-178.5 75t-127 270.5q0 190 140.5 302.5t375.5 112.5q252 0 387.5 -116.5t135.5 -337.5h-119q0 170 -105.5 260t-300.5 90q-176 0 -282.5 -79 t-106.5 -214q0 -76 29 -124t87 -78.5t114 -47.5l235 -41q98 -14 176 -34.5t158 -55.5q150 -61 150 -311q0 -205 -149.5 -327t-405.5 -122q-549 0 -549 506z" />
<glyph unicode="T" horiz-adv-x="960" d="M-4 1366v111h967v-111h-420v-1366h-125v1366h-422z" />
<glyph unicode="U" horiz-adv-x="1316" d="M139 475v1002h127v-996q0 -96 18.5 -185t122 -155.5t252.5 -66.5q190 0 269.5 75.5t103.5 145.5q20 72 21 186v996h125v-1002v-33v-26q0 -86 -19 -178q-14 -90 -154.5 -181.5t-345.5 -91.5q-250 0 -361.5 99.5t-135 171t-23.5 239.5z" />
<glyph unicode="V" horiz-adv-x="1085" d="M-33 1477h137l416 -1244q2 -8 10.5 -49t12.5 -71l6 59q6 29 7 37t9 24l416 1244h137l-512 -1477h-125z" />
<glyph unicode="W" horiz-adv-x="1642" d="M-16 1477h133l301 -1235l14 -78l4 -23l2 -22l2 74l15 63l286 1221h160l289 -1221q6 -33 10 -66.5t4 -70.5l2 22l4 23l15 78l305 1235h129l-371 -1477h-162l-288 1231l-13 55l-4 72l-14 -127l-291 -1231h-162z" />
<glyph unicode="X" horiz-adv-x="1077" d="M-4 0l471 768l-420 709h148l317 -545l14 -39l15 -45q8 57 26 84l316 545h149l-422 -709l473 -768h-151l-361 610l-16 43l-14 52l-19 -56l-14 -39l-363 -610h-149z" />
<glyph unicode="Y" horiz-adv-x="1009" d="M-45 1477h143l389 -795q18 -37 25 -84q0 55 23 92l376 787h144l-482 -977v-500h-127v496z" />
<glyph unicode="Z" horiz-adv-x="1101" d="M57 0v106l824 1260h-766v111h917v-109l-829 -1259h854v-109h-1000z" />
<glyph unicode="[" horiz-adv-x="452" d="M139 -172v1821h281v-95h-166v-1632h166v-94h-281z" />
<glyph unicode="\" horiz-adv-x="632" d="M109 1475h110l258 -1475h-110z" />
<glyph unicode="]" horiz-adv-x="452" d="M29 -78h168v1632h-168v95h282v-1821h-282v94z" />
<glyph unicode="^" horiz-adv-x="638" d="M23 1184l225 278h145l225 -278h-129l-170 231l-163 -231h-133z" />
<glyph unicode="_" horiz-adv-x="1032" d="M109 0h737v-51h-737v51z" />
<glyph unicode="`" horiz-adv-x="495" d="M31 1458h164l184 -276h-94z" />
<glyph unicode="a" horiz-adv-x="1134" d="M84 535q0 258 117.5 409.5t326.5 151.5q262 0 349 -238v219h116v-1077h-116v215l-19 -49l-65 -103q-59 -86 -267 -86q-201 0 -321.5 152t-120.5 406zM211 524q0 -209 92 -335t242 -126q152 0 243 130.5t91 349.5q0 211 -90.5 338t-241.5 127q-160 0 -248 -128.5 t-88 -355.5z" />
<glyph unicode="b" horiz-adv-x="1134" d="M139 0v1477h117v-613q8 29 17.5 47.5t68.5 103.5t262 85t324 -151.5t121 -407.5q0 -260 -120 -410.5t-325 -150.5q-262 0 -348 239v-219h-117zM254 535q0 -215 90 -339t242 -124q160 0 249 126t89 353q0 207 -91.5 334t-242.5 127q-156 0 -246 -127t-90 -350z" />
<glyph unicode="c" horiz-adv-x="1044" d="M84 539q0 256 123 408.5t338 152.5q170 0 285.5 -103.5t140.5 -283.5h-115q-66 301 -315 301q-152 0 -242 -129t-90 -350q0 -213 89 -339t241 -126q121 0 203.5 78.5t119.5 222.5h113q-31 -186 -143.5 -290t-288.5 -104q-209 0 -334 153t-125 409z" />
<glyph unicode="d" horiz-adv-x="1128" d="M84 543q0 254 121 405.5t323 151.5q197 0 256 -84l62 -92l26 -60v613h117v-1477h-117v219q-84 -239 -344 -239h-2q-203 0 -322.5 153.5t-119.5 409.5zM207 553q0 -227 87 -354t249 -127q152 0 243 125q45 61 68 144t23 196q0 221 -87.5 348t-246.5 127q-150 0 -243 -125 t-93 -334z" />
<glyph unicode="e" horiz-adv-x="1073" d="M84 537q0 258 123 410.5t336 152.5q203 0 324.5 -143.5t121.5 -385.5l-2 -47h-780v-57q0 -23 24.5 -130.5t105.5 -186t202 -78.5q244 0 323 293h113q-31 -180 -146.5 -284t-287.5 -104q-207 0 -332 153t-125 407zM209 621h661q0 178 -94 285.5t-237 107.5 q-275 0 -330 -393z" />
<glyph unicode="f" horiz-adv-x="448" d="M-16 983v94h163v127l5 90q18 209 241 209l49 -2l66 -10v-102q-31 8 -52.5 12t-47.5 4q-84 0 -115 -51q-27 -53 -27 -152v-125h242v-94h-242v-983h-119v983h-163z" />
<glyph unicode="g" horiz-adv-x="1130" d="M84 537q0 260 120 412.5t324 152.5q250 0 349 -217v192h114v-1052q0 -207 -106.5 -309.5t-335.5 -102.5q-430 0 -430 321l117 7q25 -236 321 -236q319 0 320 324v174q-96 -215 -351 -215q-203 0 -322.5 146.5t-119.5 402.5zM211 547q0 -225 86 -350t246 -125 q152 0 241.5 123.5t89.5 341.5q0 225 -87 351t-244 126q-152 0 -242 -127t-90 -340z" />
<glyph unicode="h" horiz-adv-x="1073" d="M139 0v1477h117v-592q55 104 141 166q45 31 90 45t103 14q78 0 145.5 -29.5t118.5 -87.5q45 -51 64 -108q8 -29 12 -63t4 -87v-735h-115v721q0 127 -66.5 203.5t-183.5 76.5q-98 0 -179 -64.5t-134 -182.5v-754h-117z" />
<glyph unicode="i" horiz-adv-x="393" d="M133 1212v209h129v-209h-129zM139 0v1077h115v-1077h-115z" />
<glyph unicode="j" horiz-adv-x="397" d="M-104 -266q53 -18 102 -19q72 0 106 41q37 37 37 125v1196h115v-1216q0 -246 -231 -246h-27q-14 0 -36.5 3t-33 5t-32.5 12v99zM135 1212v209h129v-209h-129z" />
<glyph unicode="k" horiz-adv-x="913" d="M139 0v1477h117v-895l459 495h149l-385 -403l432 -674h-147l-367 598l-141 -145v-453h-117z" />
<glyph unicode="l" horiz-adv-x="397" d="M139 0v1477h117v-1477h-117z" />
<glyph unicode="m" horiz-adv-x="1755" d="M139 0v1077h117v-198q53 100 147.5 161.5t194.5 61.5q123 0 206 -62.5t120 -185.5q125 248 350 248q82 0 157.5 -37t118.5 -92q18 -27 31.5 -51.5t24 -63.5t10.5 -125v-733h-115v713q0 57 -12 116q-8 55 -79 109.5t-159 54.5q-92 0 -172 -61q-70 -55 -145 -191v-741h-115 v700q0 61 -12 125t-78.5 116t-153.5 52q-98 0 -179 -62.5t-140 -187.5v-743h-117z" />
<glyph unicode="n" horiz-adv-x="1071" d="M139 0v1077h117v-196q111 227 334 227q72 0 140.5 -25.5t133.5 -97.5q68 -68 68 -244v-741h-115v725q0 123 -67.5 198.5t-182.5 75.5q-193 0 -311 -254v-745h-117z" />
<glyph unicode="o" horiz-adv-x="1116" d="M84 541q0 256 130 413.5t343 157.5t344 -153.5t131 -415.5q0 -260 -128 -416t-347 -156q-215 0 -344 154t-129 416zM209 543q0 -221 94 -353.5t254 -132.5q158 0 254 131t96 355q0 221 -94 352t-256 131q-160 0 -254 -131t-94 -352z" />
<glyph unicode="p" horiz-adv-x="1128" d="M139 -358v1435h117v-213q84 236 346 236q201 0 321.5 -151.5t120.5 -407.5t-118.5 -408.5t-325.5 -152.5q-201 0 -258 83l-66 105l-20 51v-577h-117zM252 549q0 -223 90 -351t248 -128q150 0 242 122.5t92 335.5q0 231 -88 356.5t-250 125.5q-152 0 -243 -125t-91 -336z " />
<glyph unicode="q" horiz-adv-x="1128" d="M84 539q0 258 117.5 409.5t324.5 151.5q262 0 348 -236v213h115v-1435h-115v577q-10 -31 -29.5 -64.5t-53.5 -82.5q-61 -92 -265 -92q-201 0 -321.5 151.5t-120.5 407.5zM207 528q0 -209 91 -333.5t245 -124.5t244 127t90 350q0 215 -90.5 339t-241.5 124 q-158 0 -248 -125.5t-90 -356.5z" />
<glyph unicode="r" horiz-adv-x="610" d="M139 0v1077h117v-209q121 233 301 234q41 0 61.5 -2t63.5 -15v-112l-66 20l-55 6q-162 0 -305 -260v-739h-117z" />
<glyph unicode="s" horiz-adv-x="1005" d="M72 326l2 47h108q0 -309 334 -310q143 0 222 62.5t79 177.5q0 98 -51 123l-80 37l-63 18l-140 29l-24 4l-105 25q-43 6 -78 18l-71 31q-41 18 -78 82q-33 66 -33 139q0 135 109.5 217t292.5 82q406 0 405 -346h-106q0 127 -78 192.5t-223 65.5q-129 0 -204 -56.5 t-75 -150.5q0 -74 43 -117q43 -37 158 -61l133 -27l141 -28q244 -49 244 -273q0 -154 -112.5 -247t-303.5 -93q-203 0 -324.5 98.5t-121.5 260.5z" />
<glyph unicode="t" horiz-adv-x="481" d="M8 983v94h148v258h114v-258h240v-94h-240v-747l4 -62q12 -96 127 -96q47 0 109 24v-100l-66 -16l-63 -6q-113 0 -174 69q-27 29 -41 68q-10 41 -10 116v750h-148z" />
<glyph unicode="u" horiz-adv-x="1062" d="M139 373v704h117v-698q0 -145 63.5 -221t184.5 -76q37 0 61.5 4t50.5 16q45 20 93 78l53 66l47 82v749h115v-1077h-115v199q-103 -228 -328 -228q-82 0 -151.5 31t-112.5 85t-60.5 118.5t-17.5 167.5z" />
<glyph unicode="v" horiz-adv-x="851" d="M-18 1077h131l288 -864l19 -63l10 -58q0 47 27 121l286 864h129l-383 -1077h-127z" />
<glyph unicode="w" horiz-adv-x="1359" d="M-4 1077h131l231 -870l13 -64l6 -45q0 35 4 56q0 14 2 25t8 32l209 866h162l211 -866l12 -96l2 -17l4 21l2 24l13 66l231 868h127l-307 -1077h-146l-213 901l-8 41l-8 64l-10 -64l-6 -41l-220 -901h-141z" />
<glyph unicode="x" horiz-adv-x="868" d="M-4 0l369 557l-336 520h151l219 -372l23 -48l12 -39q6 35 19 56l16 33l221 370h146l-334 -516l370 -561h-141l-264 416l-14 28q-12 23 -19 56l-35 -82l-264 -418h-139z" />
<glyph unicode="y" horiz-adv-x="845" d="M-29 1077h133l302 -831l24 -105l2 21l2 20l15 76l286 819h129l-518 -1435h-131l150 401z" />
<glyph unicode="z" horiz-adv-x="888" d="M57 0v90l619 895h-551v92h688v-94l-616 -891h641v-92h-781z" />
<glyph unicode="{" horiz-adv-x="661" d="M109 737q55 0 89.5 41.5t34.5 104.5v690q0 127 156 127h115v-64h-23q-74 0 -98 -24q-10 -12 -16.5 -37t-6.5 -66v-616q0 -59 -36.5 -104.5t-98.5 -51.5q53 -6 97 -49q39 -45 38 -106v-617q0 -80 21.5 -103.5t99.5 -23.5h23v-63h-115q-78 0 -117 32.5t-39 94.5v690 q0 98 -45 118.5t-79 26.5z" />
<glyph unicode="|" horiz-adv-x="354" d="M109 0v1475h110v-1475h-110z" />
<glyph unicode="}" horiz-adv-x="661" d="M109 -162h22q74 0 98 25q10 12 16.5 36.5t6.5 65.5v617q0 59 37 104t96 51q-55 6 -96 49q-37 43 -37 107v616q0 78 -22.5 102.5t-98.5 24.5h-22v64h114q154 0 154 -127v-690q0 -63 34.5 -104.5t92.5 -41.5q-33 -4 -80 -26q-47 -18 -47 -119v-690q0 -127 -154 -127h-114 v63z" />
<glyph unicode="~" horiz-adv-x="765" d="M23 1575q30 172 194 172q37 0 81 -10.5t87 -26.5l76 -29q74 -27 114 -26q76 0 97 82h71q-8 -78 -57 -127q-49 -45 -123 -45q-59 0 -170 37l-135 47l-55 8q-92 0 -105 -82h-75z" />
<glyph unicode="&#xa1;" horiz-adv-x="417" d="M139 0v440l21 668h98l18 -670v-438h-137zM139 1290v187h137v-187h-137z" />
<glyph unicode="&#xa2;" horiz-adv-x="1044" d="M84 526q0 258 110.5 405.5t323.5 172.5v108h78v-108l76 -10q119 -31 217 -144q76 -100 76 -192l-2 -39h-101q-6 59 -24 102q-12 43 -50 86q-31 41 -77 72q-41 23 -113 39v-957q123 31 187.5 108t82.5 220h109q0 -76 -19.5 -134t-50 -101t-71.5 -82q-18 -14 -37 -29 q-6 -4 -39 -25l-72 -28l-90 -17v-129h-78v129q-211 25 -323.5 166.5t-112.5 386.5zM199 514q0 -315 120 -377l144 -63l57 -15v961q-152 -20 -236.5 -152.5t-84.5 -353.5z" />
<glyph unicode="&#xa3;" horiz-adv-x="1019" d="M84 1092q0 176 124 295.5t312 119.5q205 0 329 -137t124 -377h-121q0 184 -88 297t-234 113q-129 0 -222 -91t-93 -227q0 -92 35 -143t76 -96l100 -105l8 -8h332v-104h-277l15 -37q20 -51 32.5 -97t12.5 -83q0 -74 -38 -157t-114 -142h580v-113h-866v113h137 q186 106 186 286q0 100 -80 230h-243v104h165q-109 102 -151 182q-20 37 -30.5 79t-10.5 98z" />
<glyph unicode="&#xa4;" horiz-adv-x="1011" d="M109 438l133 133q-59 76 -60 166q0 92 58 168l-131 125l14 17l12 16l15 14l16 15l133 -129q76 57 166 57q98 0 172 -55l129 129l18 -15q25 -18 43 -49l-133 -125q23 -33 39 -80q6 -23 10.5 -43t4.5 -47q0 -92 -56 -166l133 -133l-14 -14l-12 -12l-19 -17l-16 -14 l-129 133q-68 -55 -168 -55q-90 0 -168 55l-133 -131q-31 25 -57 57zM274 737q0 -78 55.5 -135t135.5 -57t136 56t56 136t-57 136.5t-135 56.5q-80 0 -135.5 -55.5t-55.5 -137.5z" />
<glyph unicode="&#xa5;" horiz-adv-x="1288" d="M90 1475l148 2l389 -795q18 -33 26 -84q0 35 4.5 54.5t16.5 37.5l379 787l145 -2l-414 -846l369 4v-98h-420l-20 -35l-2 -29h440v-98h-438v-373h-131v373h-441l2 100h443v23l-15 41l-430 -2v98h371z" />
<glyph unicode="&#xa7;" horiz-adv-x="1130" d="M70 631q0 213 231 340l-27 22l-20 23q-53 82 -53 174q0 135 112.5 226t284.5 91q162 0 259 -80.5t122 -242.5l-115 -6q-31 223 -272 223q-111 0 -187.5 -57.5t-76.5 -145.5q0 -70 49 -131q35 -37 104 -74l389 -205q190 -104 191 -303q0 -199 -213 -331q39 -41 59 -80 l27 -72q6 -25 8 -39t2 -45q0 -135 -110.5 -229.5t-278.5 -94.5q-174 0 -277.5 89.5t-117.5 255.5h114q31 -240 283 -240q117 0 188.5 59.5t71.5 155.5q0 59 -23.5 102t-43.5 64l-72 47l-424 227q-184 96 -184 277zM186 643q0 -70 29 -113t104 -84l426 -225q199 92 199 266 q0 135 -133 205l-414 217q-211 -102 -211 -266z" />
<glyph unicode="&#xa8;" horiz-adv-x="364" d="M-47 1182v155h145v-155h-145zM268 1182v155h142v-155h-142z" />
<glyph unicode="&#xa9;" horiz-adv-x="1908" d="M119 739q0 317 223.5 540.5t540.5 223.5t540.5 -223t223.5 -541q0 -317 -223.5 -540.5t-540.5 -223.5t-540.5 223.5t-223.5 540.5zM209 739q0 -135 50.5 -259t148.5 -226q96 -96 219 -146.5t256 -50.5q127 0 252 49.5t220 146.5t147 227t52 261q0 135 -50 259t-146 223.5 t-222 148.5t-253 49q-129 0 -252 -49t-221.5 -148.5t-149.5 -226.5t-51 -258zM395 721q0 94 46 221t175 216t293 89h58l100 -20q74 -12 182 -105l-53 -73q-86 78 -162 92l-119 14q-154 0 -267 -96t-132 -199l-16 -135q0 -178 119.5 -297t291.5 -119q121 0 228 66l55 41 l53 -74q-72 -59 -153.5 -92t-175.5 -33q-221 0 -372 147.5t-151 356.5z" />
<glyph unicode="&#xaa;" horiz-adv-x="983" d="M109 1147q0 25 1 38t14 83.5t103 149.5t205 79q27 0 43.5 -2t63.5 -14q76 -14 137 -125l10 -19l6 -12v150h109v-662h-111v160l-6 -17q-31 -74 -98.5 -116.5t-155.5 -42.5q-59 0 -169.5 45t-131.5 157zM131 610v101h670v-101h-670zM221 1147l4 -49q20 -102 92 -156 q70 -47 144 -47q66 0 135.5 49t83.5 115l14 92q0 51 -22 102l-21 39q-31 53 -83 81t-111 28q-94 0 -153.5 -62.5t-78.5 -146.5z" />
<glyph unicode="&#xab;" horiz-adv-x="763" d="M72 438v103l338 284v-137l-252 -199l252 -200v-135zM354 438v103l340 284v-137l-254 -199l254 -200v-135z" />
<glyph unicode="&#xac;" horiz-adv-x="1245" d="M109 737v111h933v-406h-98v295h-835z" />
<glyph unicode="&#xad;" horiz-adv-x="608" d="M72 469v125h467v-125h-467z" />
<glyph unicode="&#xae;" horiz-adv-x="1908" d="M119 739q0 317 223.5 540.5t540.5 223.5t540.5 -223t223.5 -541q0 -317 -223.5 -540.5t-540.5 -223.5t-540.5 223.5t-223.5 540.5zM209 739q0 -135 50.5 -259t148.5 -226q96 -96 219 -146.5t256 -50.5q127 0 252 49.5t220 146.5t147 227t52 261q0 135 -50 259t-146 223.5 t-222 148.5t-253 49q-129 0 -252 -49t-221.5 -148.5t-149.5 -226.5t-51 -258zM655 254v989h209q145 0 215 -56.5t82 -121.5l10 -92q0 -104 -62 -173t-171 -81l-37 -2l318 -463h-123l-336 500v-500h-105zM760 782h84q223 0 223 185q0 92 -53 139q-49 49 -154 49h-100v-373z " />
<glyph unicode="&#xb1;" horiz-adv-x="1216" d="M90 39v139h946v-139h-946zM90 539v139h404v250h139v-250h403v-139h-403v-250h-139v250h-404z" />
<glyph unicode="&#xb4;" horiz-adv-x="483" d="M129 1184l178 278h164l-252 -278h-90z" />
<glyph unicode="&#xb5;" horiz-adv-x="1275" d="M150 -285l4 119l4 182l-2 207l-4 195v502h188v-607q0 -145 28.5 -194t102.5 -49q115 0 193.5 166.5t78.5 416.5v267h189v-672q0 -92 18.5 -135t59.5 -43t64.5 42t23.5 126v28h43l2 -18v-27q0 -109 -48 -174t-137 -65q-98 0 -153 88t-55 264q-47 -182 -126 -267t-198 -85 q-88 0 -150 53q-55 55 -81 158l-2 -58q0 -135 63 -287.5t68 -189.5q0 -41 -22.5 -63.5t-63.5 -22.5q-47 0 -67.5 36t-20.5 107z" />
<glyph unicode="&#xb6;" horiz-adv-x="1302" d="M109 1092q0 156 111.5 269.5t266.5 113.5h609v-89h-609q-119 0 -203.5 -87t-84.5 -212q0 -119 86 -203.5t202 -84.5h148v506h90v-1305h-90v711h-148q-154 0 -266 110.5t-112 270.5zM868 0v1305h90v-1305h-90z" />
<glyph unicode="&#xb8;" horiz-adv-x="241" d="M90 -309q78 18 78 116h-70v134h146v-125q0 -170 -154 -189v64z" />
<glyph unicode="&#xba;" horiz-adv-x="985" d="M109 1151l6 68q25 129 120 208.5t218 79.5q74 0 189.5 -50t139.5 -163l21 -145q0 -14 -1 -27.5t-13.5 -82t-84 -142.5t-131.5 -86l-79 -14l-41 -2q-35 0 -104.5 13t-140.5 88t-93 185zM121 610v101h670v-101h-670zM219 1151q0 -82 35 -139q31 -53 86 -88q53 -29 117 -29 q102 0 160.5 65.5t66.5 118.5l8 72q0 80 -35 135q-31 57 -85 88t-117 31q-96 0 -168 -74q-68 -74 -68 -180z" />
<glyph unicode="&#xbb;" horiz-adv-x="770" d="M72 152v137l256 200l-256 201v137l344 -286v-103zM354 152v137l256 200l-256 201v137l348 -286v-103z" />
<glyph unicode="&#xbf;" horiz-adv-x="954" d="M70 352q0 104 36.5 178t126.5 152l89 72q80 63 112.5 133.5t32.5 167.5v43h117l2 -37q0 -70 -8.5 -117t-32.5 -94q-39 -80 -152 -176l-84 -74q-115 -98 -114 -242q0 -117 86 -198.5t215 -81.5q137 0 226 93t89 239v32h127q0 -219 -118 -346t-331 -127 q-184 0 -301.5 107.5t-117.5 275.5zM459 1290v187h137v-187h-137z" />
<glyph unicode="&#xc0;" horiz-adv-x="1153" d="M-18 0l522 1477h129l541 -1477h-140l-162 459h-604l-153 -459h-133zM301 563h539l-248 670l-21 61l-6 62l-12 -68l-14 -53zM359 1929h164l184 -276h-94z" />
<glyph unicode="&#xc1;" horiz-adv-x="1153" d="M-18 0l522 1477h129l541 -1477h-140l-162 459h-604l-153 -459h-133zM301 563h539l-248 670l-21 61l-6 62l-12 -68l-14 -53zM463 1655l178 278h164l-252 -278h-90z" />
<glyph unicode="&#xc2;" horiz-adv-x="1153" d="M-18 0l522 1477h129l541 -1477h-140l-162 459h-604l-153 -459h-133zM279 1655l225 278h145l225 -278h-129l-170 231l-163 -231h-133zM301 563h539l-248 670l-21 61l-6 62l-12 -68l-14 -53z" />
<glyph unicode="&#xc3;" horiz-adv-x="1153" d="M-18 0l522 1477h129l541 -1477h-140l-162 459h-604l-153 -459h-133zM277 1661q24 158 161 158q45 0 70 -9l70 -24l63 -29q59 -27 96 -26q59 0 78 77h60q-18 -158 -150 -157q-43 0 -141 37l-115 43l-43 6q-33 0 -57.5 -18.5t-30.5 -57.5h-61zM301 563h539l-248 670l-21 61 l-6 62l-12 -68l-14 -53z" />
<glyph unicode="&#xc4;" horiz-adv-x="1153" d="M-18 0l522 1477h129l541 -1477h-140l-162 459h-604l-153 -459h-133zM279 1511v201h167v-201h-167zM301 563h539l-248 670l-21 61l-6 62l-12 -68l-14 -53zM682 1511v201h168v-201h-168z" />
<glyph unicode="&#xc5;" horiz-adv-x="1153" d="M-18 0l522 1477h129l541 -1477h-140l-162 459h-604l-153 -459h-133zM301 563h539l-248 670l-21 61l-6 62l-12 -68l-14 -53zM393 1665q0 72 51 123t127 51q70 0 121 -52t51 -124t-50 -124t-122 -52q-74 0 -127 51q-51 55 -51 127zM465 1665q0 -43 30.5 -73.5t73.5 -30.5 q37 0 70 30.5t33 71.5q0 43 -31 73.5t-72 30.5q-43 0 -73.5 -30.5t-30.5 -71.5z" />
<glyph unicode="&#xc6;" horiz-adv-x="1859" d="M-18 0l901 1477h876v-109h-731v-541h694v-108h-700v-613h741v-106h-864v459h-496l-282 -459h-139zM463 563h436v557l6 101q6 57 7 72.5t10 54.5q-29 -78 -60 -127z" />
<glyph unicode="&#xc7;" horiz-adv-x="1415" d="M84 729q0 352 185.5 568t494.5 216q244 0 399.5 -143t155.5 -383h-123q0 190 -127 311t-313 121q-236 0 -388.5 -192.5t-152.5 -493.5q0 -299 150.5 -484.5t392.5 -185.5q109 0 210 49.5t165.5 144.5t89.5 259h120q0 -252 -160.5 -400.5t-420.5 -148.5q-307 0 -492.5 207 t-185.5 555zM666 -344q76 25 75 121h-69v131h143v-123q0 -170 -149 -188v59z" />
<glyph unicode="&#xc8;" horiz-adv-x="1103" d="M139 0v1477h869v-111h-742v-537h699v-110h-699v-610h742v-109h-869zM334 1929h164l184 -276h-94z" />
<glyph unicode="&#xc9;" horiz-adv-x="1103" d="M139 0v1477h869v-111h-742v-537h699v-110h-699v-610h742v-109h-869zM438 1655l178 278h164l-252 -278h-90z" />
<glyph unicode="&#xca;" horiz-adv-x="1103" d="M139 0v1477h869v-111h-742v-537h699v-110h-699v-610h742v-109h-869zM254 1655l225 278h145l225 -278h-129l-170 231l-163 -231h-133z" />
<glyph unicode="&#xcb;" horiz-adv-x="1103" d="M139 0v1477h869v-111h-742v-537h699v-110h-699v-610h742v-109h-869zM322 1653v155h145v-155h-145zM637 1653v155h142v-155h-142z" />
<glyph unicode="&#xcc;" horiz-adv-x="407" d="M-10 1929h164l184 -276h-94zM139 0v1477h127v-1477h-127z" />
<glyph unicode="&#xcd;" horiz-adv-x="407" d="M94 1655l178 278h164l-252 -278h-90zM139 0v1477h127v-1477h-127z" />
<glyph unicode="&#xce;" horiz-adv-x="407" d="M-90 1655l225 278h145l225 -278h-129l-170 231l-163 -231h-133zM139 0v1477h127v-1477h-127z" />
<glyph unicode="&#xcf;" horiz-adv-x="407" d="M-27 1653v155h145v-155h-145zM139 0v1477h127v-1477h-127zM288 1653v155h142v-155h-142z" />
<glyph unicode="&#xd1;" horiz-adv-x="1429" d="M139 0v1477h154l827 -1209q29 -43 66 -135l-21 152v1192h125v-1477h-127l-852 1237l-63 123l4 -23l2 -20l12 -86v-1231h-127zM414 1661q24 158 161 158q45 0 70 -9l70 -24l63 -29q59 -27 96 -26q59 0 78 77h60q-18 -158 -150 -157q-43 0 -141 37l-115 43l-43 6 q-33 0 -57.5 -18.5t-30.5 -57.5h-61z" />
<glyph unicode="&#xd2;" horiz-adv-x="1505" d="M84 737q0 352 182.5 562t487.5 210q299 0 482 -211t183 -559q0 -352 -182 -562t-483 -210t-485.5 210t-184.5 560zM211 737q0 -301 148.5 -486t394.5 -185q240 0 390 187t150 484q0 301 -149.5 487.5t-390.5 186.5q-242 0 -392.5 -187.5t-150.5 -486.5zM535 1929h164 l184 -276h-94z" />
<glyph unicode="&#xd3;" horiz-adv-x="1505" d="M84 737q0 352 182.5 562t487.5 210q299 0 482 -211t183 -559q0 -352 -182 -562t-483 -210t-485.5 210t-184.5 560zM211 737q0 -301 148.5 -486t394.5 -185q240 0 390 187t150 484q0 301 -149.5 487.5t-390.5 186.5q-242 0 -392.5 -187.5t-150.5 -486.5zM639 1655l178 278 h164l-252 -278h-90z" />
<glyph unicode="&#xd4;" horiz-adv-x="1505" d="M84 737q0 352 182.5 562t487.5 210q299 0 482 -211t183 -559q0 -352 -182 -562t-483 -210t-485.5 210t-184.5 560zM211 737q0 -301 148.5 -486t394.5 -185q240 0 390 187t150 484q0 301 -149.5 487.5t-390.5 186.5q-242 0 -392.5 -187.5t-150.5 -486.5zM455 1655l225 278 h145l225 -278h-129l-170 231l-163 -231h-133z" />
<glyph unicode="&#xd5;" horiz-adv-x="1505" d="M84 737q0 352 182.5 562t487.5 210q299 0 482 -211t183 -559q0 -352 -182 -562t-483 -210t-485.5 210t-184.5 560zM211 737q0 -301 148.5 -486t394.5 -185q240 0 390 187t150 484q0 301 -149.5 487.5t-390.5 186.5q-242 0 -392.5 -187.5t-150.5 -486.5zM453 1661 q24 158 161 158q45 0 70 -9l70 -24l63 -29q59 -27 96 -26q59 0 78 77h60q-18 -158 -150 -157q-43 0 -141 37l-115 43l-43 6q-33 0 -57.5 -18.5t-30.5 -57.5h-61z" />
<glyph unicode="&#xd6;" horiz-adv-x="1505" d="M84 737q0 371 201 578q190 197 469 196q274 0 469.5 -201.5t195.5 -570.5q0 -371 -194.5 -572.5t-470.5 -201.5t-473 203t-197 569zM211 737q0 -301 148.5 -486t394.5 -185q240 0 390 187t150 484q0 301 -149.5 487.5t-390.5 186.5q-242 0 -392.5 -187.5t-150.5 -486.5z M442 1530v201h168v-201h-168zM901 1530v201h170v-201h-170z" />
<glyph unicode="&#xd8;" horiz-adv-x="1503" d="M84 737q0 371 195.5 572.5t474.5 201.5q121 0 203.5 -30.5t119.5 -55.5q41 -23 105 -82l98 134h94l-137 -183q25 -29 43 -59l80 -125q59 -94 59 -373q0 -360 -195.5 -566t-469.5 -206q-121 0 -217 35q-53 20 -100.5 46t-102.5 69l-86 -115h-92l125 170l-48 61l-86 127 q-63 98 -63 379zM209 729q0 -113 22.5 -207t63.5 -166l59 -94l756 995l-86 72q-27 18 -104 51q-76 29 -166 29q-244 0 -394.5 -187.5t-150.5 -492.5zM406 207l67 -55l92 -48q66 -31 191 -30q231 0 380.5 180t149.5 463q0 113 -21.5 217t-62.5 186q-14 37 -47 80z" />
<glyph unicode="&#xd9;" horiz-adv-x="1316" d="M139 475v1002h127v-996q0 -96 18.5 -185t122 -155.5t252.5 -66.5q190 0 269.5 75.5t103.5 145.5q20 72 21 186v996h125v-1002v-33v-26q0 -86 -19 -178q-14 -90 -154.5 -181.5t-345.5 -91.5q-250 0 -361.5 99.5t-135 171t-23.5 239.5zM441 1929h164l184 -276h-94z" />
<glyph unicode="&#xda;" horiz-adv-x="1316" d="M139 475v1002h127v-996q0 -96 18.5 -185t122 -155.5t252.5 -66.5q190 0 269.5 75.5t103.5 145.5q20 72 21 186v996h125v-1002v-33v-26q0 -86 -19 -178q-14 -90 -154.5 -181.5t-345.5 -91.5q-250 0 -361.5 99.5t-135 171t-23.5 239.5zM545 1655l178 278h164l-252 -278h-90 z" />
<glyph unicode="&#xdb;" horiz-adv-x="1316" d="M139 475v1002h127v-996q0 -96 18.5 -185t122 -155.5t252.5 -66.5q190 0 269.5 75.5t103.5 145.5q20 72 21 186v996h125v-1002v-33v-26q0 -86 -19 -178q-14 -90 -154.5 -181.5t-345.5 -91.5q-250 0 -361.5 99.5t-135 171t-23.5 239.5zM361 1655l225 278h145l225 -278h-129 l-170 231l-163 -231h-133z" />
<glyph unicode="&#xdc;" horiz-adv-x="1316" d="M139 473v1004h127v-998q0 -96 18.5 -184t121 -153.5t253.5 -65.5q190 0 271.5 74.5t102 143t20.5 185.5v998h125v-1004v-35v-26q0 -80 -19 -176q-14 -90 -154.5 -181.5t-345.5 -91.5q-250 0 -362.5 98.5t-136.5 169.5q-8 31 -14.5 94.5t-6.5 147.5zM375 1507v201h168 v-201h-168zM784 1507v201h168v-201h-168z" />
<glyph unicode="&#xdf;" horiz-adv-x="1077" d="M139 0v1100q0 186 82 276q45 53 127 90q43 16 82 24.5t88 8.5q158 0 256 -85t98 -224q0 -201 -204 -281q342 -53 342 -422q0 -209 -122 -357t-302 -148q-63 0 -105 10l-71 20v92q29 -10 67.5 -18t71.5 -8q154 0 248 114.5t94 301.5q0 135 -63.5 226t-149.5 109l-133 27 l-113 6v86q115 0 177.5 18.5t105.5 81t43 142.5q0 98 -61.5 153.5t-172.5 55.5q-129 0 -198.5 -76t-69.5 -225v-1098h-117z" />
<glyph unicode="&#xe0;" horiz-adv-x="1134" d="M84 535q0 258 117.5 409.5t326.5 151.5q262 0 349 -238v219h116v-1077h-116v215l-19 -49l-65 -103q-59 -86 -267 -86q-201 0 -321.5 152t-120.5 406zM211 524q0 -209 92 -335t242 -126q152 0 243 130.5t91 349.5q0 211 -90.5 338t-241.5 127q-160 0 -248 -128.5 t-88 -355.5zM350 1458h164l184 -276h-94z" />
<glyph unicode="&#xe1;" horiz-adv-x="1134" d="M84 535q0 258 117.5 409.5t326.5 151.5q262 0 349 -238v219h116v-1077h-116v215l-19 -49l-65 -103q-59 -86 -267 -86q-201 0 -321.5 152t-120.5 406zM211 524q0 -209 92 -335t242 -126q152 0 243 130.5t91 349.5q0 211 -90.5 338t-241.5 127q-160 0 -248 -128.5 t-88 -355.5zM455 1184l178 278h164l-252 -278h-90z" />
<glyph unicode="&#xe2;" horiz-adv-x="1134" d="M84 535q0 258 117.5 409.5t326.5 151.5q262 0 349 -238v219h116v-1077h-116v215l-19 -49l-65 -103q-59 -86 -267 -86q-201 0 -321.5 152t-120.5 406zM211 524q0 -209 92 -335t242 -126q152 0 243 130.5t91 349.5q0 211 -90.5 338t-241.5 127q-160 0 -248 -128.5 t-88 -355.5zM271 1184l225 278h145l225 -278h-129l-170 231l-163 -231h-133z" />
<glyph unicode="&#xe3;" horiz-adv-x="1134" d="M84 535q0 258 117.5 409.5t326.5 151.5q262 0 349 -238v219h116v-1077h-116v215l-19 -49l-65 -103q-59 -86 -267 -86q-201 0 -321.5 152t-120.5 406zM211 524q0 -209 92 -335t242 -126q152 0 243 130.5t91 349.5q0 211 -90.5 338t-241.5 127q-160 0 -248 -128.5 t-88 -355.5zM267 1190q24 158 161 158q45 0 70 -9l70 -24l63 -29q59 -27 96 -26q59 0 78 77h60q-18 -158 -150 -157q-43 0 -141 37l-115 43l-43 6q-33 0 -57.5 -18.5t-30.5 -57.5h-61z" />
<glyph unicode="&#xe4;" horiz-adv-x="1134" d="M84 571q0 260 117.5 412t326.5 152q262 0 349 -238v180h116v-1077h-116v252q-18 -53 -39 -88q-49 -70 -133 -113q-84 -39 -179 -39q-203 0 -322.5 153.5t-119.5 405.5zM211 561q0 -209 91 -334t243 -125q154 0 244 127t90 351q0 215 -90.5 338.5t-241.5 123.5 q-160 0 -248 -125.5t-88 -355.5zM309 1206v156h146v-156h-146zM625 1206v156h141v-156h-141z" />
<glyph unicode="&#xe5;" horiz-adv-x="1134" d="M84 539q0 258 117.5 409.5t326.5 151.5q262 0 349 -236v219h116v-1079h-116v215l-19 -49l-65 -102q-59 -86 -267 -86q-201 0 -321.5 151.5t-120.5 405.5zM211 528q0 -209 91 -333.5t243 -124.5q154 0 244 127t90 350q0 211 -90.5 338t-241.5 127q-160 0 -248 -128.5 t-88 -355.5zM385 1292q0 68 48 116t118 48q68 0 115 -47t47 -119q0 -68 -48.5 -116t-113.5 -48q-68 0 -117 49.5t-49 116.5zM455 1292q0 -41 26.5 -67.5t67.5 -26.5t67.5 26.5t26.5 67.5q0 39 -25.5 68t-68.5 29q-41 0 -67.5 -27t-26.5 -70z" />
<glyph unicode="&#xe6;" horiz-adv-x="1855" d="M84 539q0 246 127 402.5t328 156.5q129 0 208.5 -55.5t122.5 -172.5v207h107v-205q10 41 14 48.5t29 44.5q16 25 39 55q59 82 258 82q203 0 329 -147.5t126 -391.5v-35l-783 -6v-37q0 -182 92.5 -300.5t239.5 -118.5q121 0 202 74.5t113 217.5h117l-22 -79l-50 -107 q-35 -74 -132 -136.5t-230 -62.5q-178 0 -244 68q-61 68 -74 94l-26 66v-201h-107v209q-86 -233 -323 -234q-205 0 -333 158t-128 406zM209 528q0 -209 90 -332.5t244 -123.5t244 127t90 348q0 211 -90.5 338t-241.5 127q-160 0 -248 -126.5t-88 -357.5zM991 625h660 q0 174 -93.5 281.5t-236.5 107.5q-135 0 -221 -98t-109 -291z" />
<glyph unicode="&#xe7;" horiz-adv-x="1044" d="M84 539q0 256 123 408.5t338 152.5q170 0 285.5 -103.5t140.5 -283.5h-115q-66 301 -315 301q-152 0 -242 -129t-90 -350q0 -213 89 -339t241 -126q121 0 203.5 78.5t119.5 222.5h113q-31 -186 -143.5 -290t-288.5 -104q-209 0 -334 153t-125 409zM449 -326q78 25 77 117 h-69v133h145v-123q0 -88 -40 -138t-113 -50v61z" />
<glyph unicode="&#xe8;" horiz-adv-x="1073" d="M84 537q0 258 123 410.5t336 152.5q203 0 324.5 -143.5t121.5 -385.5l-2 -47h-780v-57q0 -23 24.5 -130.5t105.5 -186t202 -78.5q244 0 323 293h113q-31 -180 -146.5 -284t-287.5 -104q-207 0 -332 153t-125 407zM209 621h661q0 178 -94 285.5t-237 107.5 q-275 0 -330 -393zM320 1458h164l184 -276h-94z" />
<glyph unicode="&#xe9;" horiz-adv-x="1073" d="M84 537q0 258 123 410.5t336 152.5q203 0 324.5 -143.5t121.5 -385.5l-2 -47h-780v-57q0 -23 24.5 -130.5t105.5 -186t202 -78.5q244 0 323 293h113q-31 -180 -146.5 -284t-287.5 -104q-207 0 -332 153t-125 407zM209 621h661q0 178 -94 285.5t-237 107.5 q-275 0 -330 -393zM424 1184l178 278h164l-252 -278h-90z" />
<glyph unicode="&#xea;" horiz-adv-x="1073" d="M84 537q0 258 123 410.5t336 152.5q203 0 324.5 -143.5t121.5 -385.5l-2 -47h-780v-57q0 -23 24.5 -130.5t105.5 -186t202 -78.5q244 0 323 293h113q-31 -180 -146.5 -284t-287.5 -104q-207 0 -332 153t-125 407zM209 621h661q0 178 -94 285.5t-237 107.5 q-275 0 -330 -393zM240 1184l225 278h145l225 -278h-129l-170 231l-163 -231h-133z" />
<glyph unicode="&#xeb;" horiz-adv-x="1073" d="M84 537q0 258 123 410.5t336 152.5q203 0 324.5 -143.5t121.5 -385.5l-2 -47h-780v-57q0 -23 24.5 -130.5t105.5 -186t202 -78.5q244 0 323 293h113q-31 -180 -146.5 -284t-287.5 -104q-207 0 -332 153t-125 407zM209 621h661q0 178 -94 285.5t-237 107.5 q-275 0 -330 -393zM307 1182v155h145v-155h-145zM622 1182v155h142v-155h-142z" />
<glyph unicode="&#xec;" horiz-adv-x="397" d="M-16 1458h164l184 -276h-94zM139 0v1077h117v-1077h-117z" />
<glyph unicode="&#xed;" horiz-adv-x="397" d="M88 1184l178 278h164l-252 -278h-90zM139 0v1077h117v-1077h-117z" />
<glyph unicode="&#xee;" horiz-adv-x="397" d="M-96 1184l225 278h145l225 -278h-129l-170 231l-163 -231h-133zM139 0v1077h117v-1077h-117z" />
<glyph unicode="&#xef;" horiz-adv-x="397" d="M-31 1182v155h145v-155h-145zM139 0v1077h117v-1077h-117zM284 1182v155h142v-155h-142z" />
<glyph unicode="&#xf1;" horiz-adv-x="1071" d="M139 0v1077h117v-196q111 227 334 227q72 0 140.5 -25.5t133.5 -97.5q68 -68 68 -244v-741h-115v725q0 123 -67.5 198.5t-182.5 75.5q-193 0 -311 -254v-745h-117zM236 1190q24 158 161 158q45 0 70 -9l70 -24l63 -29q59 -27 96 -26q59 0 78 77h60q-18 -158 -150 -157 q-43 0 -141 37l-115 43l-43 6q-33 0 -57.5 -18.5t-30.5 -57.5h-61z" />
<glyph unicode="&#xf2;" horiz-adv-x="1116" d="M84 541q0 256 130 413.5t343 157.5t344 -153.5t131 -415.5q0 -260 -128 -416t-347 -156q-215 0 -344 154t-129 416zM209 543q0 -221 94 -353.5t254 -132.5q158 0 254 131t96 355q0 221 -94 352t-256 131q-160 0 -254 -131t-94 -352zM340 1458h164l184 -276h-94z" />
<glyph unicode="&#xf3;" horiz-adv-x="1116" d="M84 541q0 256 130 413.5t343 157.5t344 -153.5t131 -415.5q0 -260 -128 -416t-347 -156q-215 0 -344 154t-129 416zM209 543q0 -221 94 -353.5t254 -132.5q158 0 254 131t96 355q0 221 -94 352t-256 131q-160 0 -254 -131t-94 -352zM444 1184l178 278h164l-252 -278h-90z " />
<glyph unicode="&#xf4;" horiz-adv-x="1116" d="M84 541q0 256 130 413.5t343 157.5t344 -153.5t131 -415.5q0 -260 -128 -416t-347 -156q-215 0 -344 154t-129 416zM209 543q0 -221 94 -353.5t254 -132.5q158 0 254 131t96 355q0 221 -94 352t-256 131q-160 0 -254 -131t-94 -352zM261 1184l225 278h145l225 -278h-129 l-170 231l-163 -231h-133z" />
<glyph unicode="&#xf5;" horiz-adv-x="1116" d="M84 541q0 256 130 413.5t343 157.5t344 -153.5t131 -415.5q0 -260 -128 -416t-347 -156q-215 0 -344 154t-129 416zM209 543q0 -221 94 -353.5t254 -132.5q158 0 254 131t96 355q0 221 -94 352t-256 131q-160 0 -254 -131t-94 -352zM259 1190q24 158 161 158q45 0 70 -9 l70 -24l63 -29q59 -27 96 -26q59 0 78 77h60q-18 -158 -150 -157q-43 0 -141 37l-115 43l-43 6q-33 0 -57.5 -18.5t-30.5 -57.5h-61z" />
<glyph unicode="&#xf6;" horiz-adv-x="1116" d="M84 541q0 256 130 413.5t343 157.5t344 -153.5t131 -415.5q0 -260 -128 -416t-347 -156q-215 0 -344 154t-129 416zM209 543q0 -221 94 -353.5t254 -132.5q158 0 254 131t96 355q0 221 -94 352t-256 131q-160 0 -254 -131t-94 -352zM332 1208v156h143v-156h-143z M647 1208v156h141v-156h-141z" />
<glyph unicode="&#xf7;" horiz-adv-x="1216" d="M88 414v139h948v-139h-948zM446 207q0 49 37 83t80 34q49 0 82 -33t33 -84q0 -49 -35 -82q-31 -35 -80 -35t-84 35q-33 39 -33 82zM446 758q0 49 37 82.5t80 33.5q49 0 82 -35.5t33 -80.5q0 -49 -35 -82q-31 -35 -80 -35t-84 33q-33 37 -33 84z" />
<glyph unicode="&#xf8;" horiz-adv-x="1116" d="M84 541q0 264 129 417.5t348 153.5q94 0 158.5 -24.5t138.5 -92.5l53 82h88l-96 -127l35 -53l29 -51q66 -115 65 -301q0 -266 -127 -420t-344 -154q-164 0 -303 105l-61 -76h-84l94 131l-62 105q-61 129 -61 305zM207 535q0 -154 35 -230l39 -80l510 686q-47 53 -107 84 q-59 27 -127 27q-158 0 -254 -131t-96 -356zM322 164q106 -106 239 -107q160 0 253 133.5t93 356.5q0 141 -37 233l-39 78z" />
<glyph unicode="&#xf9;" horiz-adv-x="1062" d="M139 373v704h117v-698q0 -145 63.5 -221t184.5 -76q37 0 61.5 4t50.5 16q45 20 93 78l53 66l47 82v749h115v-1077h-115v199q-103 -228 -328 -228q-82 0 -151.5 31t-112.5 85t-60.5 118.5t-17.5 167.5zM314 1458h164l184 -276h-94z" />
<glyph unicode="&#xfa;" horiz-adv-x="1062" d="M139 373v704h117v-698q0 -145 63.5 -221t184.5 -76q37 0 61.5 4t50.5 16q45 20 93 78l53 66l47 82v749h115v-1077h-115v199q-103 -228 -328 -228q-82 0 -151.5 31t-112.5 85t-60.5 118.5t-17.5 167.5zM418 1184l178 278h164l-252 -278h-90z" />
<glyph unicode="&#xfb;" horiz-adv-x="1062" d="M139 373v704h117v-698q0 -145 63.5 -221t184.5 -76q37 0 61.5 4t50.5 16q45 20 93 78l53 66l47 82v749h115v-1077h-115v199q-103 -228 -328 -228q-82 0 -151.5 31t-112.5 85t-60.5 118.5t-17.5 167.5zM234 1184l225 278h145l225 -278h-129l-170 231l-163 -231h-133z" />
<glyph unicode="&#xfc;" horiz-adv-x="1064" d="M139 371v706h117v-702q0 -145 63.5 -221t184.5 -76q37 0 61.5 4t50.5 16q43 18 94.5 75.5t98.5 152.5v751h115v-1077h-115v195q-103 -226 -328 -226q-178 0 -242.5 84t-82 149.5t-17.5 168.5zM309 1206v156h146v-156h-146zM625 1206v156h141v-156h-141z" />
<glyph unicode="&#xff;" horiz-adv-x="845" d="M-29 1077h133l302 -831l24 -105l2 21l2 20l15 76l286 819h129l-518 -1435h-131l150 401zM193 1182v155h145v-155h-145zM508 1182v155h142v-155h-142z" />
<glyph unicode="&#x152;" horiz-adv-x="2246" d="M84 725q0 350 129 505.5t263 218t278 62.5q268 0 365.5 -109.5t119 -141t45.5 -84.5v301h862v-109h-741v-541h702v-108h-702v-613h747v-106h-868v297l-43 -78q-14 -25 -114.5 -140.5t-372.5 -115.5q-301 0 -485.5 209t-184.5 553zM213 727q0 -293 150.5 -478.5 t392.5 -185.5q244 0 384 185.5t140 507.5q0 166 -31.5 275.5t-106.5 194.5t-179.5 136t-217.5 51q-233 0 -382.5 -189.5t-149.5 -496.5z" />
<glyph unicode="&#x153;" horiz-adv-x="1855" d="M84 549q0 250 124 401.5t333 151.5q274 0 391 -275q123 275 397 275q188 0 315.5 -142.5t127.5 -363.5v-68l-781 -6q0 -213 92.5 -332.5t249.5 -119.5q117 0 197 73.5t112 216.5h117q-90 -385 -430 -385q-172 0 -276 99q-59 49 -121 174q-127 -268 -389 -268 q-207 0 -333 154.5t-126 414.5zM207 541q0 -221 88 -346t246 -125q154 0 245 123.5t91 334.5q0 229 -87.5 356.5t-248.5 127.5q-158 0 -246 -125t-88 -346zM991 625h664q0 170 -94.5 279.5t-241.5 109.5q-137 0 -221 -103q-87 -96 -107 -286z" />
<glyph unicode="&#x178;" horiz-adv-x="1009" d="M-45 1477h143l389 -795q18 -37 25 -84q0 55 23 92l376 787h144l-482 -977v-500h-127v496zM275 1653v155h145v-155h-145zM590 1653v155h142v-155h-142z" />
<glyph unicode="&#x2000;" horiz-adv-x="966" />
<glyph unicode="&#x2001;" horiz-adv-x="1933" />
<glyph unicode="&#x2002;" horiz-adv-x="966" />
<glyph unicode="&#x2003;" horiz-adv-x="1933" />
<glyph unicode="&#x2004;" horiz-adv-x="644" />
<glyph unicode="&#x2005;" horiz-adv-x="483" />
<glyph unicode="&#x2006;" horiz-adv-x="322" />
<glyph unicode="&#x2007;" horiz-adv-x="322" />
<glyph unicode="&#x2008;" horiz-adv-x="241" />
<glyph unicode="&#x2009;" horiz-adv-x="386" />
<glyph unicode="&#x200a;" horiz-adv-x="107" />
<glyph unicode="&#x2010;" horiz-adv-x="608" d="M72 469v125h467v-125h-467z" />
<glyph unicode="&#x2011;" horiz-adv-x="608" d="M72 469v125h467v-125h-467z" />
<glyph unicode="&#x2012;" horiz-adv-x="608" d="M72 469v125h467v-125h-467z" />
<glyph unicode="&#x2013;" d="M102 688v107h957v-107h-957z" />
<glyph unicode="&#x2014;" horiz-adv-x="2039" d="M61 684v107h1917v-107h-1917z" />
<glyph unicode="&#x2018;" horiz-adv-x="278" d="M72 1018v205q0 125 30.5 185t104.5 71v-68q-68 -18 -68 -162l2 -45h68v-186h-137z" />
<glyph unicode="&#x2019;" horiz-adv-x="278" d="M72 1298v185h137v-223q0 -119 -31 -176.5t-102 -69.5v71l26 15q16 14 29 53l8 107l-2 38h-65z" />
<glyph unicode="&#x201a;" horiz-adv-x="278" d="M72 0v186h137v-209q0 -125 -32 -179t-103 -66v65q31 6 48 46t17 118l-2 39h-65z" />
<glyph unicode="&#x201c;" horiz-adv-x="503" d="M72 1018v205q0 125 30.5 185t104.5 71v-68q-68 -18 -68 -162l2 -45h68v-186h-137zM297 1018v205q0 127 30.5 185t106.5 71v-68q-33 -8 -50 -48t-17 -114v-45h67v-186h-137z" />
<glyph unicode="&#x201d;" horiz-adv-x="503" d="M72 1298v185h137v-223q0 -119 -31 -176.5t-102 -69.5v71l26 15q16 14 29 53l8 107l-2 38h-65zM297 1298v185h137v-223q0 -119 -30.5 -176.5t-102.5 -69.5v71q18 4 32.5 16.5t22.5 51.5l9 107v38h-68z" />
<glyph unicode="&#x201e;" horiz-adv-x="503" d="M72 0v186h137v-209q0 -125 -32 -179t-103 -66v65q31 6 48 46t17 118l-2 39h-65zM297 0v186h137v-209q0 -121 -28.5 -177t-104.5 -68v65q35 6 49.5 48t14.5 116v39h-68z" />
<glyph unicode="&#x2022;" horiz-adv-x="335" d="M100 446v187h138v-187h-138z" />
<glyph unicode="&#x2026;" horiz-adv-x="2039" d="M258 82q0 41 29 70q31 27 71 26q41 0 68 -28q29 -25 29 -70q0 -39 -29 -67.5t-72 -28.5q-39 0 -67.5 28.5t-28.5 69.5zM940 82q0 41 29 70q31 27 71 26q41 0 68 -28q29 -25 29 -70q0 -39 -29 -67.5t-72 -28.5q-39 0 -67.5 28.5t-28.5 69.5zM1608 82q0 41 28.5 69.5 t69.5 28.5t69.5 -28.5t28.5 -69.5t-28.5 -69.5t-69.5 -28.5t-69.5 28.5t-28.5 69.5z" />
<glyph unicode="&#x202f;" horiz-adv-x="386" />
<glyph unicode="&#x2039;" horiz-adv-x="479" d="M72 438v103l338 284v-137l-252 -199l252 -200v-135z" />
<glyph unicode="&#x203a;" horiz-adv-x="487" d="M72 152v137l256 200l-256 201v137l344 -286v-103z" />
<glyph unicode="&#x205f;" horiz-adv-x="483" />
<glyph unicode="&#x20ac;" horiz-adv-x="1540" d="M53 799h1276l49 110h-1263zM90 623h1165l50 110h-1155zM209 729q0 -350 184 -555q186 -205 494 -205q260 0 420 148q162 147 161 399h-120q-14 -121 -57.5 -206t-107 -139t-141 -79.5t-159.5 -28.5q-244 0 -394 185q-150 186 -149 485q0 299 152 494q154 193 389 192 q186 0 313 -121q47 -47 79 -78.5t46 -48.5q59 -76 88 -161l63 161q-27 33 -49 61t-43 52q-8 8 -30.5 29.5t-59.5 56.5q-156 143 -399 143q-309 0 -496 -217q-184 -215 -184 -567z" />
<glyph unicode="&#x2122;" horiz-adv-x="1634" d="M109 1382v93h440v-93l-170 2v-647h-103v647zM524 737l148 762h33l229 -504l12 -30l4 -11q12 -31 13 -69l2 30l12 41l6 15l10 24l230 504h32l148 -762h-105l-77 445l-4 26l-3 9v32l3 33l-9 -29l-10 -34l-8 -25l-4 -8l-211 -469h-23l-211 469l-6 12l-6 21l-18 63l2 -41v-24 l-2 -9l-4 -26l-78 -445h-105z" />
<glyph unicode="&#x25fc;" horiz-adv-x="1075" d="M0 0v1075h1075v-1075h-1075z" />
</font>
</defs>
</svg>
